<svg width="16" height="15" viewBox="0 0 16 15" fill="none" xmlns="http://www.w3.org/2000/svg">
<path d="M15.3648 13.9551C14.2344 12.001 12.4925 10.5997 10.4597 9.93546C11.4652 9.33685 12.2465 8.42472 12.6834 7.33913C13.1204 6.25355 13.1889 5.05454 12.8785 3.92623C12.5681 2.79792 11.8959 1.80271 10.9651 1.09342C10.0343 0.384139 8.89643 0 7.7262 0C6.55597 0 5.41809 0.384139 4.48731 1.09342C3.55653 1.80271 2.88431 2.79792 2.57389 3.92623C2.26347 5.05454 2.332 6.25355 2.76897 7.33913C3.20594 8.42472 3.98718 9.33685 4.99272 9.93546C2.95987 10.599 1.21796 12.0002 0.0876051 13.9551C0.0461531 14.0227 0.0186583 14.0979 0.00674291 14.1763C-0.00517249 14.2547 -0.00126712 14.3347 0.0182286 14.4116C0.0377243 14.4884 0.0724155 14.5606 0.120255 14.6238C0.168095 14.687 0.228114 14.74 0.296772 14.7797C0.36543 14.8194 0.441335 14.8449 0.520009 14.8547C0.598684 14.8646 0.678533 14.8586 0.754848 14.837C0.831162 14.8155 0.902394 14.7789 0.964342 14.7295C1.02629 14.68 1.0777 14.6186 1.11553 14.5489C2.51382 12.1323 4.9853 10.6895 7.7262 10.6895C10.4671 10.6895 12.9386 12.1323 14.3369 14.5489C14.3747 14.6186 14.4261 14.68 14.4881 14.7295C14.55 14.7789 14.6212 14.8155 14.6975 14.837C14.7739 14.8586 14.8537 14.8646 14.9324 14.8547C15.0111 14.8449 15.087 14.8194 15.1556 14.7797C15.2243 14.74 15.2843 14.687 15.3321 14.6238C15.38 14.5606 15.4147 14.4884 15.4342 14.4116C15.4537 14.3347 15.4576 14.2547 15.4457 14.1763C15.4337 14.0979 15.4062 14.0227 15.3648 13.9551ZM3.56995 5.34577C3.56995 4.52374 3.81371 3.72017 4.2704 3.03668C4.7271 2.35319 5.37622 1.82047 6.13567 1.50589C6.89513 1.19132 7.73081 1.10901 8.53704 1.26938C9.34328 1.42975 10.0838 1.82559 10.6651 2.40686C11.2464 2.98812 11.6422 3.72869 11.8026 4.53493C11.963 5.34116 11.8806 6.17684 11.5661 6.9363C11.2515 7.69575 10.7188 8.34487 10.0353 8.80157C9.3518 9.25826 8.54823 9.50202 7.7262 9.50202C6.62425 9.50084 5.56778 9.06257 4.78859 8.28338C4.0094 7.50419 3.57113 6.44771 3.56995 5.34577Z" fill="#F7F6FA"/>
</svg>
