<svg width="15" height="15" viewBox="0 0 15 15" fill="none" xmlns="http://www.w3.org/2000/svg">
<path d="M13.9019 6.28504L7.96442 0.347536C7.74174 0.125004 7.43982 0 7.12501 0C6.8102 0 6.50827 0.125004 6.28559 0.347536L0.348093 6.28504C0.237288 6.39502 0.149453 6.52593 0.089696 6.67017C0.0299388 6.8144 -0.000548222 6.96907 7.46157e-06 7.12519V14.2502C7.46157e-06 14.4077 0.0625632 14.5587 0.173913 14.67C0.285263 14.7814 0.436285 14.8439 0.593757 14.8439H5.34376C5.50123 14.8439 5.65225 14.7814 5.7636 14.67C5.87495 14.5587 5.93751 14.4077 5.93751 14.2502V10.0939H8.31251V14.2502C8.31251 14.4077 8.37506 14.5587 8.48641 14.67C8.59776 14.7814 8.74879 14.8439 8.90626 14.8439H13.6563C13.8137 14.8439 13.9648 14.7814 14.0761 14.67C14.1875 14.5587 14.25 14.4077 14.25 14.2502V7.12519C14.2506 6.96907 14.2201 6.8144 14.1603 6.67017C14.1006 6.52593 14.0127 6.39502 13.9019 6.28504ZM13.0625 13.6564H9.50001V9.50019C9.50001 9.34272 9.43745 9.1917 9.3261 9.08035C9.21475 8.969 9.06373 8.90644 8.90626 8.90644H5.34376C5.18629 8.90644 5.03526 8.969 4.92391 9.08035C4.81256 9.1917 4.75001 9.34272 4.75001 9.50019V13.6564H1.18751V7.12519L7.12501 1.18769L13.0625 7.12519V13.6564Z" fill="#FFF8F8"/>
</svg>
